<svg id="Capa_1" data-name="Capa 1" xmlns="http://www.w3.org/2000/svg" xmlns:xlink="http://www.w3.org/1999/xlink" viewBox="0 0 180 67.27"><defs><style>.cls-1{fill:none;}.cls-2{clip-path:url(#clip-path);}.cls-3{fill:#fff;}</style><clipPath id="clip-path" transform="translate(-10 -16.36)"><rect class="cls-1" x="10" y="16.36" width="180" height="67.27"/></clipPath></defs><g class="cls-2"><path class="cls-3" d="M189.27,75.28a1.83,1.83,0,0,0-.78-1A172.9,172.9,0,0,0,149.4,55.68c-2.86-.94-4.92,4.44-2.07,5.37a171.9,171.9,0,0,1,24.18,10A544.56,544.56,0,0,0,54.68,65c-7.13.4-14.24,1-21.35,1.64l94.2-43.73c1.9-.89,2.38-5.26-.33-5.29L12.77,16.36c-2.89,0-4,5.58-.87,5.62l103,1.13-98,45.52c-2.39,1.11-2.07,5.58.94,5.21A542.28,542.28,0,0,1,149,73.65q9.72,1.17,19.41,2.7L147.16,78a3.1,3.1,0,0,0-2.76,2.73c-.17,1.12.41,3,1.88,2.88l40.94-3.21A3.1,3.1,0,0,0,190,77.69,3,3,0,0,0,189.27,75.28Z" transform="translate(-10 -16.36)"/></g></svg>