<?xml version="1.0" encoding="utf-8"?>
<!-- Generator: Adobe Illustrator 24.3.0, SVG Export Plug-In . SVG Version: 6.00 Build 0)  -->
<svg version="1.1" id="Capa_1" xmlns="http://www.w3.org/2000/svg" xmlns:xlink="http://www.w3.org/1999/xlink" x="0px" y="0px"
	 viewBox="0 0 425.2 425.2" style="enable-background:new 0 0 425.2 425.2;" xml:space="preserve">
<style type="text/css">
	.st0{fill:#81877B;}
	.st1{fill:#FFFFFF;}
	.st2{fill:#AFAB7F;}
	.st3{fill:#D3A72B;}
</style>
<g>
	<g>
		<path class="st0" d="M118.54,156.24c-6.18,0-10.49-4.59-10.49-11.15v-43.32L89.6,125.11c-2.76,3.37-5.96,5.14-9.28,5.14
			c-3.35,0-6.47-1.79-9.01-5.18l-16.16-22.78v42.8c0,7.24-5.95,11.15-11.55,11.15c-4.95,0-9.96-3.83-9.96-11.15V70.42
			c0-7.88,6.49-11.15,9.96-11.15c4.6,0,7.28,2.57,9.85,5.44l0.06,0.07l27.63,37.3l28.63-38.68c1.94-2.42,4.88-3.77,8.1-3.77
			c5.28,0,10.63,3.71,10.63,10.8v74.67C128.5,152.41,123.49,156.24,118.54,156.24z"/>
		<path class="st1" d="M43.6,61.27c3.85,0,6.1,2.25,8.36,4.78l29.18,39.39l30.24-40.85c1.59-1.98,4.03-2.96,6.49-2.96
			c4.29,0,8.63,2.98,8.63,8.8v74.67c0,5.84-3.71,9.15-7.96,9.15c-4.78,0-8.49-3.32-8.49-9.15V96.02l-22.02,27.85
			c-2.39,2.92-5.07,4.38-7.71,4.38s-5.22-1.46-7.41-4.38L53.15,96.02v49.07c0,5.84-4.77,9.15-9.55,9.15c-4.24,0-7.96-3.32-7.96-9.15
			V70.42C35.64,63.52,41.48,61.27,43.6,61.27 M43.6,57.27c-4.17,0-11.96,3.86-11.96,13.15v74.67c0,8.63,6.02,13.15,11.96,13.15
			c3.43,0,6.69-1.2,9.19-3.37c2.81-2.45,4.36-5.92,4.36-9.78v-36.52l12.5,17.62l0.03,0.04l0.03,0.04c2.89,3.85,6.66,5.98,10.61,5.98
			c2.75,0,6.85-1.01,10.81-5.84l0.02-0.03l0.02-0.03l14.88-18.82v37.56c0,7.74,5.14,13.15,12.49,13.15
			c5.94,0,11.96-4.52,11.96-13.15V70.42c0-3.8-1.43-7.19-4.02-9.54c-2.31-2.1-5.37-3.25-8.61-3.25c-3.83,0-7.33,1.62-9.61,4.45
			l-0.05,0.06l-0.05,0.06L81.13,98.71L55.17,63.66l-0.11-0.15l-0.12-0.14C52.76,60.94,49.47,57.27,43.6,57.27L43.6,57.27z"/>
	</g>
	<g>
		<path class="st0" d="M154.53,156.51c-5.31,0-10.68-3.56-10.68-10.36V70.42c0-6.77,5.47-10.31,10.87-10.31
			c5.29,0,10.64,3.54,10.64,10.31v75.73C165.36,152.95,159.91,156.51,154.53,156.51z"/>
		<path class="st1" d="M154.73,62.11c4.34,0,8.64,2.72,8.64,8.31v75.73c0,5.54-4.43,8.36-8.83,8.36c-4.35,0-8.68-2.75-8.68-8.36
			V70.42C145.85,64.93,150.31,62.11,154.73,62.11 M154.73,58.11L154.73,58.11c-6.24,0-12.87,4.31-12.87,12.31v75.73
			c0,6.14,4.35,12.36,12.68,12.36c6.22,0,12.83-4.33,12.83-12.36V70.42C167.36,64.3,163.02,58.11,154.73,58.11L154.73,58.11z"/>
	</g>
	<g>
		<path class="st0" d="M249.4,156.49c-3.58,0-6.95-1.77-9.49-4.99l-0.07-0.09l-19.43-27.8h-17.78v22.01
			c0,7.12-5.54,10.84-11.01,10.84c-5.28,0-10.63-3.63-10.63-10.57V70.55c0-5.66,4.37-10.09,9.96-10.09h35.28
			c19.51,0,29.09,13.74,31.36,25.51c2.32,12-1.74,26.66-15.69,33.61l16.04,19.54l0.05,0.08c2.55,3.77,2.92,7.98,1.02,11.55
			C257.16,154.24,253.39,156.49,249.4,156.49z M226.23,104.36c7.44,0,11.33-6.16,11.33-12.24c0-3.12-0.99-5.99-2.8-8.07
			c-2.01-2.32-4.96-3.55-8.54-3.55h-23.6v23.85H226.23z"/>
		<path class="st1" d="M226.23,62.46c33.69,0,40.59,45.1,12.47,56.37l17.64,21.49c4.85,7.19-0.54,14.17-6.93,14.17
			c-2.69,0-5.56-1.24-7.92-4.23l-20.03-28.65h-20.82v24.01c0,5.85-4.54,8.84-9.01,8.84c-4.35,0-8.63-2.82-8.63-8.57V70.55
			c0-4.64,3.58-8.09,7.96-8.09H226.23 M200.63,106.36h25.6c17.24,0,18.3-27.85,0-27.85h-25.6V106.36 M226.23,58.46h-35.28
			c-6.71,0-11.96,5.31-11.96,12.09v75.34c0,6.25,4.34,12.57,12.63,12.57c6.31,0,13.01-4.5,13.01-12.84v-20.01h14.74l18.83,26.94
			l0.07,0.1l0.07,0.09c2.93,3.71,6.86,5.75,11.06,5.75c4.71,0,9.18-2.67,11.37-6.8c2.26-4.25,1.85-9.21-1.13-13.61l-0.1-0.15
			l-0.12-0.14l-14.46-17.61c5.25-3.15,9.35-7.65,12-13.21c3.08-6.45,4-14.04,2.58-21.36c-1.43-7.41-5.19-14.13-10.58-18.92
			C242.93,61.3,235.06,58.46,226.23,58.46L226.23,58.46z M204.63,82.51h21.6c3.02,0,5.38,0.96,7.02,2.86
			c1.49,1.72,2.31,4.12,2.31,6.76c0,4.93-2.92,10.24-9.33,10.24h-21.6V82.51L204.63,82.51z"/>
	</g>
	<g>
		<path class="st0" d="M36.88,260.02c-1.16,0-2.37-0.12-3.61-0.36l-0.32-0.06l-0.28-0.16c-4.86-2.73-8.31-8.54-5.07-15.34
			l38.09-74.46c2.03-3.98,5.94-6.46,10.19-6.46c4.31,0,7.99,2.45,9.85,6.54l37.37,74.34c1.82,3.46,1.78,7.12-0.13,10.28
			c-2.06,3.41-5.95,5.61-9.92,5.61c-3.94,0-7.19-2.16-8.93-5.93l-5.26-10.51H52.41l-5.16,10.55
			C45.45,257.89,41.76,260.02,36.88,260.02z M87.57,222l-11.95-26.12L62.61,222H87.57z"/>
		<path class="st1" d="M75.89,165.18c3.22,0,6.39,1.76,8.03,5.37l37.4,74.41c3.67,6.98-2.44,12.99-8.27,12.99
			c-2.81,0-5.56-1.4-7.12-4.77l-5.84-11.67H51.16l-5.7,11.67c-1.64,3.49-4.95,4.83-8.58,4.83c-1.06,0-2.15-0.12-3.23-0.33
			c-4.24-2.39-6.9-7.16-4.24-12.73l38.07-74.41C69.28,167,72.61,165.18,75.89,165.18 M59.38,224h31.3L75.7,191.24L59.38,224
			 M75.89,161.18c-5.01,0-9.6,2.9-11.98,7.56l-38.06,74.4l-0.03,0.05l-0.02,0.05c-3.23,6.79-0.81,14.17,5.89,17.94l0.56,0.32
			l0.63,0.12c1.36,0.26,2.7,0.4,3.99,0.4c5.61,0,10.04-2.59,12.18-7.1l4.6-9.41h43.97l4.7,9.41c2.06,4.4,6.06,7.03,10.72,7.03
			c4.66,0,9.23-2.58,11.64-6.57c2.25-3.72,2.32-8.18,0.19-12.25l-37.36-74.31C85.35,164.1,80.9,161.18,75.89,161.18L75.89,161.18z
			 M65.84,220l9.7-19.48L84.46,220H65.84L65.84,220z"/>
	</g>
	<g>
		<path class="st0" d="M142.54,259.69c-5.37,0-11.15-3.2-11.15-10.22v-75.34c0-6.02,5.88-10.22,11.15-10.22h30.37
			c14.61,0,26.86,5.19,35.42,15.01c7.54,8.65,11.69,20.31,11.69,32.84c0,23.82-15.77,47.93-45.92,47.93H142.54z M172.91,239.51
			c7.77,0,14.33-3.02,18.96-8.73c4.13-5.09,6.49-12.18,6.49-19.47c0-18.81-12.79-27.23-25.46-27.23h-20.02v55.42H172.91z"/>
		<path class="st1" d="M172.91,165.91c60.61,0,59.29,91.78,1.19,91.78h-31.57c-4.38,0-9.15-2.39-9.15-8.22v-75.34
			c0-4.77,4.77-8.22,9.15-8.22H172.91 M150.89,241.51h22.02c35.81,0,37.4-59.42,0-59.42h-22.02V241.51 M172.91,161.91h-30.37
			c-3.12,0-6.32,1.19-8.79,3.26c-2.81,2.36-4.37,5.54-4.37,8.97v75.34c0,3.9,1.6,7.27,4.51,9.48c2.32,1.77,5.39,2.74,8.64,2.74
			h31.57c31.46,0,47.92-25.12,47.92-49.93c0-13.01-4.33-25.14-12.18-34.15C200.89,167.34,188.12,161.91,172.91,161.91L172.91,161.91
			z M154.89,186.09h18.02c7.34,0,13.42,2.65,17.59,7.66c3.78,4.55,5.87,10.78,5.87,17.56c0,18-12.16,26.19-23.46,26.19h-18.02
			V186.09L154.89,186.09z"/>
	</g>
	<path class="st0" d="M280.2,259.02c-24.54,1.06-50-15.25-50-47.75c0-32.63,25.47-48.68,50-48.68
		c23.21,1.19,47.48,17.24,47.48,48.68S303.42,259.02,280.2,259.02z M278.74,179.83c-14.86,0-31.04,10.48-31.04,31.43
		c0,20.82,16.18,31.43,31.04,31.43c15.25,0,31.57-10.61,31.57-31.43C310.31,190.31,294,179.83,278.74,179.83z"/>
	<g>
		<path class="st0" d="M101.92,363.39c-3.58,0-6.95-1.77-9.49-4.99l-19.5-27.89H55.15v22.01c0,7.12-5.54,10.84-11.01,10.84
			c-5.28,0-10.63-3.63-10.63-10.57v-75.33c0-5.66,4.37-10.09,9.96-10.09h35.28c19.51,0,29.09,13.74,31.36,25.51
			c2.32,12-1.74,26.66-15.69,33.61l16.04,19.54l0.05,0.08c2.55,3.77,2.92,7.98,1.02,11.56
			C109.68,361.14,105.91,363.39,101.92,363.39z M78.75,311.26c7.44,0,11.33-6.16,11.33-12.24c0-3.12-0.99-5.99-2.8-8.07
			c-2.01-2.32-4.96-3.55-8.54-3.55h-23.6v23.85H78.75z"/>
		<path class="st1" d="M78.75,269.36c33.69,0,40.59,45.1,12.47,56.37l17.64,21.49c4.85,7.19-0.54,14.18-6.93,14.18
			c-2.69,0-5.56-1.24-7.92-4.23l-20.03-28.65H53.15v24.01c0,5.85-4.54,8.84-9.01,8.84c-4.35,0-8.63-2.82-8.63-8.57v-75.34
			c0-4.64,3.58-8.09,7.96-8.09H78.75 M53.15,313.26h25.6c17.24,0,18.3-27.85,0-27.85h-25.6V313.26 M78.75,265.36H43.47
			c-6.71,0-11.96,5.31-11.96,12.09v75.34c0,6.25,4.34,12.57,12.63,12.57c6.31,0,13.01-4.5,13.01-12.84v-20.01h14.74l18.83,26.94
			l0.07,0.1l0.07,0.09c2.93,3.71,6.86,5.75,11.06,5.75c4.71,0,9.18-2.67,11.37-6.8c2.26-4.25,1.85-9.21-1.13-13.61l-0.1-0.16
			l-0.12-0.14l-14.46-17.61c5.25-3.15,9.35-7.65,12-13.21c3.08-6.45,4-14.04,2.58-21.36c-1.43-7.41-5.19-14.13-10.58-18.92
			C95.45,268.2,87.58,265.36,78.75,265.36L78.75,265.36z M57.15,289.41h21.6c3.02,0,5.38,0.96,7.02,2.86
			c1.49,1.72,2.31,4.12,2.31,6.76c0,4.93-2.92,10.24-9.33,10.24h-21.6V289.41L57.15,289.41z"/>
	</g>
	<g>
		<path class="st0" d="M133.25,363.14c-5.73,0-10.22-4.49-10.22-10.22v-75.34c0-5.83,4.4-10.22,10.22-10.22h47.62
			c7.26,0,11.05,5.31,11.05,10.55c0,5.31-3.8,10.69-11.05,10.69h-36.2v15.9h31.42c7.12,0,10.85,5.38,10.85,10.69
			s-3.73,10.69-10.85,10.69h-31.42v15.89h38.45c7.41,0,11.4,5.63,11.4,10.93c0,2.77-1.02,5.33-2.88,7.22
			c-1.45,1.47-4.1,3.22-8.52,3.22H133.25z"/>
		<path class="st1" d="M180.87,269.36c12.2,0,11.94,17.24,0,17.24h-38.2v19.9h33.42c11.8,0,11.8,17.37,0,17.37h-33.42v19.9h40.45
			c12.07,0,13,17.37,0,17.37h-49.87c-4.64,0-8.22-3.58-8.22-8.22v-75.34c0-4.77,3.58-8.22,8.22-8.22H180.87 M180.87,265.36h-47.62
			c-6.97,0-12.22,5.25-12.22,12.22v75.34c0,6.85,5.37,12.22,12.22,12.22h49.87c5.11,0,8.23-2.08,9.94-3.82
			c2.23-2.27,3.46-5.33,3.46-8.63c0-6.27-4.7-12.93-13.4-12.93h-36.45v-11.9h29.42c8.44,0,12.85-6.38,12.85-12.69
			s-4.42-12.69-12.85-12.69h-29.42v-11.9h34.2c3.87,0,7.32-1.42,9.71-4c2.16-2.32,3.34-5.41,3.34-8.69
			C193.92,271.67,189.44,265.36,180.87,265.36L180.87,265.36z"/>
	</g>
	<g>
		<path class="st0" d="M238.06,365.93c-12.49,0-24.83-3.79-32.21-9.88c-5.33-4.36-5.14-11.32-2.25-15.65l0.11-0.17l0.14-0.14
			c2.55-2.55,5.1-3.79,7.77-3.79c2.23,0,4.46,0.9,6.64,2.68c4.81,3.25,14.03,6.53,22.43,6.53c0,0,0,0,0,0
			c6.37,0,14.16-1.88,15.21-10.78c-0.74-6.58-9.69-9.09-20.04-11.99c-15.74-4.41-35.33-9.9-32.73-33.71
			c2.12-17.9,19.87-25.9,36.51-25.9c10.3,0,20.11,3,26.91,8.22c3.91,3.16,5.34,7.49,3.88,11.61c-1.37,3.87-5.07,6.57-9.01,6.57
			c-1.98,0-3.96-0.67-5.71-1.94c-4.61-2.91-11.84-4.86-18.01-4.86c-4.53,0-12.34,1.07-13.79,8.24c-1.22,7.44,6.64,10.02,19.58,13.6
			c15.24,4.22,34.2,9.46,33.64,30.62C276.54,357.88,255.71,365.93,238.06,365.93z"/>
		<path class="st1" d="M239.66,265.13c9.48,0,18.97,2.64,25.69,7.8c7.3,5.9,2.43,14.59-3.91,14.59c-1.49,0-3.07-0.48-4.58-1.59
			c-4.69-2.98-12.24-5.2-19.14-5.2c-7.53,0-14.29,2.65-15.75,9.85c-3.58,21.75,54.12,9.29,53.19,44.56
			c-0.56,20.46-18.79,28.79-37.11,28.79c-11.85,0-23.74-3.48-30.93-9.42c-4.38-3.58-4.24-9.42-1.86-13
			c1.97-1.97,4.08-3.21,6.36-3.21c1.71,0,3.52,0.69,5.44,2.28c5.41,3.69,15.06,6.93,23.63,6.93c8.66,0,16.22-3.3,17.22-12.77
			c-1.72-19.63-56.9-7.83-52.79-45.49C207.07,272.97,223.33,265.14,239.66,265.13 M239.66,261.13v4V261.13L239.66,261.13
			c-9.26,0-18.06,2.33-24.79,6.57c-7.92,4.98-12.66,12.27-13.7,21.08c-2.79,25.54,18.57,31.52,34.17,35.89
			c11.01,3.08,17.83,5.33,18.56,10.07c-1.2,8.77-10.21,8.77-13.2,8.77c-7.96,0-16.67-3.08-21.24-6.14
			c-2.53-2.03-5.16-3.07-7.83-3.07c-3.19,0-6.28,1.47-9.19,4.38l-0.28,0.28l-0.22,0.33c-3.38,5.06-3.59,13.2,2.65,18.31
			c7.82,6.46,20.34,10.33,33.47,10.33c18.55,0,40.44-8.56,41.11-32.68c0.6-22.73-20.04-28.44-35.11-32.61
			c-13.25-3.67-18.99-5.86-18.14-11.35c1.14-5.42,7.05-6.57,11.81-6.57c5.81,0,12.58,1.81,16.89,4.52c2.08,1.49,4.44,2.28,6.82,2.28
			c4.85,0,9.22-3.17,10.89-7.9c1.73-4.89,0.01-10.18-4.47-13.8l-0.04-0.03l-0.04-0.03C260.65,264.28,250.39,261.13,239.66,261.13
			L239.66,261.13z"/>
	</g>
</g>
<g>
	<path class="st1" d="M278.74,179.83c-14.86,0-31.04,10.48-31.04,31.43c0,20.82,16.18,31.43,31.04,31.43
		c15.25,0,31.57-10.61,31.57-31.43C310.31,190.31,294,179.83,278.74,179.83z"/>
	<path class="st1" d="M315.33,172.62c-9.27-8.36-21.67-13.34-34.92-14.02l-0.1-0.01h-0.1c-13.91,0-26.98,4.64-36.81,13.07
		c-11.25,9.65-17.2,23.35-17.2,39.61c0,34.01,26.03,51.8,51.75,51.8c0.78,0,1.56-0.02,2.34-0.05c12.96-0.02,25.72-4.79,35.02-13.1
		c7.47-6.67,16.37-18.79,16.37-38.65C331.69,195.64,326.03,182.27,315.33,172.62z M280.2,259.02c-0.75,0.03-1.5,0.05-2.25,0.05
		c-23.82,0-47.75-16.29-47.75-47.8c0-32.63,25.47-48.68,50-48.68c23.21,1.19,47.48,17.24,47.48,48.68
		C327.69,242.7,303.42,259.02,280.2,259.02z"/>
	<g>
		<path class="st2" d="M322.09,223.63c-6.27,0-11.38-5.1-11.38-11.38c0-6.27,5.1-11.38,11.38-11.38h65.38
			c6.27,0,11.38,5.1,11.38,11.38c0,6.27-5.1,11.38-11.38,11.38H322.09z"/>
		<path class="st1" d="M387.47,202.87c5.18,0,9.38,4.2,9.38,9.38c0,5.18-4.2,9.38-9.38,9.38h-65.38c-5.18,0-9.38-4.2-9.38-9.38
			c0-5.18,4.2-9.38,9.38-9.38H387.47 M387.47,198.87h-65.38c-7.38,0-13.38,6-13.38,13.38c0,7.38,6,13.38,13.38,13.38h65.38
			c7.38,0,13.38-6,13.38-13.38C400.85,204.87,394.85,198.87,387.47,198.87L387.47,198.87z"/>
	</g>
	<g>
		<path class="st2" d="M309.85,191.57c-2.7,0-5.31-0.96-7.37-2.71c-2.55-2.17-4.01-5.33-4.01-8.67c0-2.7,0.96-5.31,2.71-7.37
			l32.64-38.37c0.75-0.88,1.62-1.63,2.58-2.24c0.62-0.4,1.29-0.73,1.98-1c1.32-0.51,2.7-0.77,4.11-0.77c0.42,0,0.84,0.02,1.26,0.07
			c1.11,0.12,2.18,0.41,3.2,0.84c0.34,0.15,0.68,0.31,1.02,0.49c0.67,0.37,1.31,0.81,1.89,1.31c0.32,0.27,0.61,0.55,0.89,0.84
			c0.08,0.08,0.15,0.16,0.21,0.24c0.23,0.26,0.41,0.47,0.57,0.68c0.07,0.1,0.14,0.19,0.21,0.29l0.06,0.08
			c0.14,0.2,0.28,0.4,0.41,0.61c0.08,0.13,0.16,0.27,0.23,0.4c0.12,0.22,0.23,0.43,0.33,0.64c0.07,0.15,0.13,0.29,0.2,0.45
			c0.09,0.21,0.17,0.42,0.25,0.63c0.05,0.15,0.11,0.31,0.15,0.46c0.07,0.22,0.12,0.43,0.18,0.65c0.05,0.2,0.08,0.34,0.11,0.48
			c0.04,0.22,0.08,0.45,0.11,0.68l0.01,0.11c0.02,0.12,0.03,0.24,0.04,0.36c0.02,0.24,0.03,0.48,0.04,0.73
			c0.01,0.2,0.01,0.31,0.01,0.43c0,0.11-0.01,0.21-0.01,0.31c-0.01,0.28-0.02,0.51-0.05,0.73c-0.01,0.1-0.03,0.22-0.04,0.34
			c-0.04,0.28-0.07,0.48-0.11,0.69c-0.03,0.14-0.06,0.28-0.09,0.43c-0.05,0.19-0.1,0.39-0.16,0.59c-0.04,0.15-0.09,0.29-0.13,0.42
			c-0.06,0.19-0.14,0.39-0.22,0.59c-0.05,0.13-0.11,0.27-0.16,0.4c-0.09,0.21-0.19,0.4-0.29,0.6c-0.08,0.16-0.14,0.27-0.2,0.38
			c-0.12,0.21-0.25,0.42-0.38,0.62c-0.09,0.14-0.14,0.22-0.19,0.3c-0.21,0.3-0.43,0.59-0.67,0.88l-32.64,38.37
			C316.35,190.11,313.19,191.57,309.85,191.57C309.85,191.57,309.85,191.57,309.85,191.57z"/>
		<path class="st1" d="M342.49,132.44c0.35,0,0.69,0.02,1.04,0.06c0.9,0.1,1.79,0.33,2.63,0.69c0.28,0.12,0.56,0.26,0.83,0.41
			c0.55,0.3,1.07,0.66,1.56,1.08c0.26,0.22,0.5,0.46,0.73,0.7c0.08,0.08,0.14,0.16,0.21,0.25c0.15,0.17,0.3,0.34,0.43,0.51
			c0.08,0.1,0.15,0.21,0.22,0.31c0.12,0.16,0.23,0.33,0.33,0.5c0.07,0.11,0.13,0.23,0.2,0.35c0.09,0.17,0.18,0.34,0.26,0.51
			c0.06,0.12,0.11,0.24,0.16,0.37c0.07,0.17,0.14,0.35,0.2,0.52c0.04,0.13,0.09,0.25,0.13,0.38c0.05,0.18,0.1,0.36,0.15,0.54
			c0.03,0.13,0.06,0.26,0.09,0.38c0.04,0.19,0.06,0.38,0.09,0.56c0.02,0.13,0.04,0.25,0.05,0.38c0.02,0.2,0.03,0.4,0.03,0.6
			c0,0.12,0.01,0.24,0.01,0.36c0,0.1-0.01,0.21-0.01,0.31c-0.01,0.18-0.02,0.36-0.03,0.54c-0.01,0.11-0.03,0.23-0.04,0.34
			c-0.02,0.17-0.05,0.34-0.08,0.51c-0.02,0.12-0.05,0.23-0.08,0.35c-0.04,0.17-0.08,0.33-0.13,0.5c-0.03,0.11-0.07,0.23-0.11,0.34
			c-0.06,0.16-0.12,0.33-0.18,0.49c-0.04,0.11-0.09,0.22-0.14,0.33c-0.07,0.16-0.15,0.33-0.24,0.49c-0.05,0.1-0.1,0.2-0.16,0.3
			c-0.1,0.17-0.21,0.34-0.32,0.51c-0.05,0.08-0.1,0.17-0.16,0.25c-0.17,0.25-0.36,0.49-0.56,0.72L317,186.27
			c-1.86,2.18-4.49,3.3-7.15,3.3c-2.15,0-4.31-0.73-6.07-2.23c-2.18-1.85-3.3-4.49-3.3-7.15c0-2.15,0.73-4.31,2.23-6.07l32.64-38.37
			c0.63-0.74,1.35-1.36,2.13-1.85c0.52-0.33,1.07-0.6,1.63-0.82C340.19,132.65,341.34,132.44,342.49,132.44 M342.49,128.44
			c-1.66,0-3.28,0.3-4.83,0.9c-0.81,0.31-1.6,0.71-2.33,1.17c-1.14,0.72-2.16,1.61-3.04,2.64l-32.64,38.37
			c-2.06,2.42-3.19,5.49-3.19,8.66c0,3.93,1.72,7.65,4.71,10.2c2.42,2.06,5.49,3.19,8.66,3.19c3.93,0,7.65-1.72,10.2-4.71
			l32.64-38.37c0.27-0.32,0.53-0.66,0.79-1.03c0.08-0.11,0.15-0.22,0.21-0.33c0.17-0.27,0.33-0.51,0.47-0.76
			c0.07-0.12,0.13-0.25,0.2-0.37l0.03-0.06c0.12-0.23,0.23-0.46,0.34-0.7c0.07-0.15,0.13-0.3,0.19-0.45
			c0.1-0.25,0.19-0.49,0.27-0.72c0.05-0.16,0.11-0.33,0.15-0.49c0.07-0.24,0.13-0.47,0.19-0.71c0.04-0.16,0.08-0.33,0.11-0.49
			c0.05-0.24,0.09-0.49,0.12-0.73l0.01-0.06c0.02-0.14,0.04-0.28,0.05-0.42c0.03-0.26,0.04-0.52,0.05-0.77l0-0.06
			c0.01-0.13,0.01-0.26,0.01-0.39c0-0.15,0-0.3-0.01-0.45l0-0.06c-0.01-0.29-0.02-0.57-0.05-0.86c-0.01-0.15-0.03-0.31-0.06-0.46
			l-0.01-0.08c-0.04-0.27-0.08-0.54-0.13-0.8c-0.04-0.18-0.08-0.36-0.12-0.53c-0.07-0.27-0.14-0.53-0.21-0.79
			c-0.06-0.18-0.12-0.36-0.18-0.54c-0.09-0.25-0.19-0.5-0.29-0.75c-0.07-0.18-0.15-0.35-0.23-0.53c-0.12-0.25-0.24-0.49-0.38-0.73
			l-0.03-0.05c-0.08-0.15-0.16-0.3-0.25-0.44c-0.15-0.24-0.31-0.48-0.47-0.71l-0.04-0.06c-0.09-0.13-0.18-0.26-0.27-0.38
			c-0.21-0.28-0.42-0.52-0.61-0.73c-0.11-0.13-0.21-0.24-0.31-0.35c-0.34-0.36-0.69-0.69-1.05-0.99c-0.69-0.59-1.44-1.1-2.23-1.54
			c-0.39-0.21-0.79-0.41-1.19-0.58c-1.2-0.51-2.46-0.84-3.76-0.99C343.49,128.47,342.99,128.44,342.49,128.44L342.49,128.44z"/>
	</g>
	<g>
		<path class="st2" d="M275.08,180.23c-0.66,0-1.33-0.06-1.99-0.17c-5.45-0.96-9.4-5.67-9.4-11.19c0-0.66,0.06-1.33,0.17-1.98
			l7.52-42.66c0.07-0.39,0.16-0.77,0.26-1.14c0.31-1.09,0.78-2.12,1.39-3.07c0.36-0.56,0.79-1.11,1.28-1.62c0,0,0.04-0.05,0.08-0.1
			l0.09-0.09c0.32-0.33,0.68-0.64,1.08-0.95c0.33-0.26,0.66-0.49,1.01-0.71c0.71-0.44,1.46-0.81,2.24-1.08
			c0.4-0.14,0.81-0.26,1.22-0.35c0.83-0.19,1.68-0.29,2.53-0.29c0.28,0,0.55,0.01,0.83,0.03c0.38,0.03,0.77,0.08,1.15,0.14
			c0.37,0.07,0.73,0.15,1.08,0.25c0.1,0.03,0.19,0.06,0.28,0.09c0.3,0.09,0.53,0.17,0.76,0.26c0.11,0.04,0.22,0.09,0.33,0.14
			c0.26,0.11,0.46,0.2,0.65,0.3c0.12,0.06,0.23,0.12,0.33,0.18c0.24,0.13,0.42,0.23,0.6,0.34c0.13,0.08,0.25,0.16,0.37,0.24
			c0.18,0.12,0.34,0.24,0.5,0.36c0.11,0.08,0.23,0.17,0.34,0.27c0.17,0.14,0.32,0.27,0.47,0.42c0.14,0.13,0.22,0.21,0.31,0.29
			c0.16,0.15,0.31,0.32,0.46,0.49c0.11,0.12,0.18,0.19,0.24,0.27c0.18,0.21,0.35,0.44,0.52,0.67l0.1,0.14
			c0.21,0.3,0.39,0.59,0.56,0.89c0.04,0.08,0.08,0.15,0.12,0.23c0.14,0.26,0.25,0.48,0.35,0.71c0.04,0.09,0.15,0.37,0.15,0.37
			c0.08,0.2,0.16,0.4,0.23,0.6c0.04,0.1,0.07,0.22,0.11,0.33c0.09,0.28,0.14,0.48,0.19,0.68c0.03,0.14,0.07,0.29,0.1,0.43
			c0.04,0.2,0.08,0.4,0.11,0.61c0.02,0.14,0.04,0.29,0.06,0.44c0.02,0.21,0.04,0.42,0.05,0.64c0.01,0.21,0.02,0.32,0.02,0.44
			c0,0.24,0,0.48-0.02,0.72c-0.01,0.17-0.01,0.26-0.02,0.35c-0.03,0.36-0.07,0.72-0.13,1.08l-7.52,42.66
			C285.32,176.28,280.61,180.23,275.08,180.23L275.08,180.23z"/>
		<path class="st1" d="M282.58,116.82c0.23,0,0.46,0.01,0.69,0.03c0.32,0.02,0.63,0.06,0.95,0.12c0.3,0.05,0.6,0.12,0.89,0.2
			c0.1,0.03,0.19,0.06,0.28,0.09c0.19,0.06,0.38,0.12,0.57,0.19c0.11,0.04,0.21,0.09,0.32,0.14c0.17,0.07,0.33,0.14,0.49,0.22
			c0.11,0.05,0.21,0.11,0.32,0.17c0.15,0.08,0.3,0.17,0.45,0.26c0.1,0.06,0.21,0.13,0.31,0.2c0.14,0.1,0.28,0.19,0.41,0.3
			c0.1,0.07,0.19,0.15,0.28,0.22c0.13,0.11,0.26,0.22,0.39,0.34c0.08,0.08,0.17,0.15,0.25,0.23c0.13,0.13,0.26,0.27,0.38,0.4
			c0.07,0.08,0.14,0.15,0.2,0.23c0.15,0.18,0.29,0.36,0.43,0.55c0.03,0.04,0.06,0.08,0.09,0.12c0.16,0.23,0.31,0.47,0.46,0.72
			c0.04,0.07,0.08,0.15,0.12,0.22c0.09,0.18,0.19,0.36,0.27,0.54c0.05,0.1,0.08,0.2,0.13,0.3c0.07,0.16,0.13,0.33,0.19,0.5
			c0.04,0.11,0.07,0.22,0.11,0.34c0.05,0.16,0.1,0.33,0.14,0.49c0.03,0.12,0.06,0.24,0.08,0.36c0.03,0.17,0.06,0.34,0.09,0.5
			c0.02,0.12,0.04,0.24,0.05,0.36c0.02,0.17,0.03,0.35,0.04,0.52c0.01,0.12,0.01,0.24,0.02,0.36c0,0.2,0,0.39-0.01,0.59
			c0,0.1,0,0.19-0.01,0.29c-0.02,0.3-0.06,0.59-0.11,0.89c0,0,0,0,0,0l-7.52,42.66c-0.8,4.55-4.76,7.75-9.23,7.75
			c-0.54,0-1.09-0.05-1.64-0.14c-4.55-0.8-7.75-4.76-7.75-9.23c0-0.54,0.05-1.09,0.14-1.64l7.52-42.66
			c0.06-0.32,0.13-0.63,0.21-0.94c0.26-0.91,0.65-1.76,1.15-2.53c0.31-0.48,0.67-0.92,1.06-1.34c0.03-0.03,0.05-0.06,0.07-0.08
			c0.01-0.01,0.03-0.02,0.04-0.04c0.29-0.3,0.6-0.57,0.93-0.82c0.27-0.21,0.55-0.41,0.84-0.59c0.58-0.36,1.2-0.66,1.85-0.89
			c0.32-0.11,0.66-0.21,1-0.29C281.17,116.9,281.87,116.82,282.58,116.82 M282.58,112.82c-1,0-2,0.11-2.98,0.34
			c-0.48,0.11-0.96,0.25-1.43,0.42c-0.92,0.32-1.81,0.75-2.64,1.27c-0.41,0.25-0.81,0.53-1.19,0.83c-0.47,0.37-0.88,0.73-1.25,1.1
			c-0.04,0.04-0.09,0.08-0.13,0.13c-0.06,0.06-0.11,0.12-0.17,0.18c-0.54,0.58-1.03,1.2-1.44,1.84c-0.72,1.12-1.27,2.33-1.64,3.62
			c-0.12,0.44-0.23,0.88-0.3,1.33l-7.52,42.66c-0.14,0.77-0.2,1.56-0.2,2.33c0,6.5,4.65,12.03,11.06,13.16
			c0.77,0.14,1.56,0.2,2.33,0.2c6.5,0,12.03-4.65,13.16-11.06l7.52-42.66c0.07-0.41,0.12-0.82,0.16-1.27
			c0.01-0.13,0.02-0.25,0.02-0.37c0.01-0.32,0.02-0.6,0.02-0.89c0-0.15-0.01-0.3-0.02-0.45l0-0.06c-0.01-0.25-0.03-0.5-0.06-0.75
			c-0.02-0.17-0.04-0.35-0.07-0.52c-0.04-0.24-0.08-0.48-0.13-0.72c-0.04-0.17-0.07-0.34-0.11-0.51c-0.06-0.24-0.13-0.47-0.2-0.71
			l-0.02-0.05c-0.04-0.14-0.09-0.29-0.14-0.43c-0.08-0.24-0.18-0.48-0.27-0.71l-0.02-0.06c-0.05-0.12-0.1-0.25-0.16-0.37
			c-0.12-0.26-0.25-0.52-0.39-0.77c-0.05-0.11-0.11-0.21-0.17-0.32c-0.2-0.36-0.42-0.7-0.65-1.03c-0.05-0.08-0.11-0.15-0.17-0.22
			c-0.2-0.27-0.39-0.52-0.58-0.74c-0.08-0.1-0.17-0.19-0.26-0.29c-0.21-0.23-0.39-0.42-0.57-0.61c-0.1-0.1-0.2-0.2-0.31-0.29
			l-0.05-0.05c-0.18-0.17-0.36-0.33-0.55-0.49c-0.13-0.11-0.27-0.21-0.4-0.32c-0.19-0.15-0.39-0.29-0.59-0.42
			c-0.14-0.1-0.29-0.19-0.44-0.28c-0.21-0.13-0.42-0.25-0.64-0.37c-0.16-0.09-0.31-0.17-0.46-0.24c-0.23-0.11-0.46-0.22-0.7-0.32
			l-0.06-0.03c-0.13-0.06-0.26-0.11-0.4-0.16c-0.26-0.1-0.54-0.19-0.81-0.28c-0.15-0.05-0.28-0.09-0.4-0.13
			c-0.44-0.12-0.85-0.22-1.27-0.29c-0.45-0.08-0.9-0.14-1.35-0.17C283.24,112.83,282.91,112.82,282.58,112.82L282.58,112.82z"/>
	</g>
	<g>
		<path class="st2" d="M342.5,291.22c-0.67,0-1.34-0.06-2-0.18c-1.82-0.32-3.56-1.1-5.01-2.23c-0.6-0.47-1.16-1-1.66-1.59
			l-32.64-38.37c-1.75-2.06-2.71-4.67-2.71-7.37c0-3.34,1.46-6.51,4.01-8.67c2.06-1.75,4.67-2.71,7.37-2.71
			c3.35,0,6.51,1.46,8.67,4.01l32.58,38.3l0.08,0.08l0.05,0.08c0.21,0.25,0.41,0.51,0.59,0.78c0.06,0.08,0.11,0.16,0.16,0.25
			c0.17,0.27,0.3,0.47,0.42,0.68c0.06,0.1,0.12,0.22,0.18,0.34c0.12,0.23,0.21,0.42,0.3,0.62c0.05,0.12,0.1,0.23,0.14,0.34
			c0.1,0.26,0.17,0.45,0.24,0.64c0.05,0.16,0.1,0.3,0.14,0.44c0.06,0.19,0.11,0.39,0.15,0.59c0.04,0.16,0.07,0.29,0.09,0.43
			c0.04,0.21,0.07,0.42,0.1,0.62c0.02,0.15,0.04,0.29,0.05,0.43c0.02,0.2,0.03,0.42,0.04,0.63c0.01,0.18,0.01,0.28,0.02,0.38
			c0,0.12,0,0.23-0.01,0.35c-0.01,0.33-0.02,0.57-0.04,0.81c-0.01,0.12-0.03,0.24-0.04,0.35l-0.01,0.11
			c-0.03,0.24-0.07,0.46-0.11,0.68c-0.03,0.14-0.06,0.28-0.09,0.42c-0.07,0.29-0.13,0.5-0.19,0.71c-0.05,0.15-0.1,0.31-0.16,0.47
			c-0.08,0.22-0.16,0.42-0.24,0.63c-0.06,0.15-0.13,0.3-0.2,0.45c-0.1,0.2-0.2,0.41-0.32,0.61c-0.09,0.16-0.16,0.3-0.24,0.43
			c-0.12,0.21-0.26,0.4-0.4,0.6c-0.12,0.18-0.19,0.28-0.26,0.38c-0.17,0.22-0.35,0.42-0.52,0.62c-0.12,0.14-0.19,0.22-0.27,0.3
			c-0.28,0.29-0.57,0.57-0.88,0.84C347.81,290.25,345.19,291.22,342.5,291.22L342.5,291.22z"/>
		<path class="st1" d="M309.85,232.09c2.65,0,5.29,1.12,7.15,3.3l32.64,38.37c0,0,0,0,0,0c0.2,0.23,0.38,0.47,0.55,0.72
			c0.06,0.08,0.11,0.17,0.16,0.25c0.11,0.17,0.22,0.33,0.31,0.51c0.06,0.1,0.11,0.21,0.16,0.31c0.08,0.16,0.16,0.32,0.23,0.48
			c0.05,0.11,0.09,0.23,0.14,0.34c0.06,0.16,0.12,0.32,0.18,0.48c0.04,0.12,0.08,0.24,0.11,0.35c0.05,0.16,0.09,0.32,0.13,0.49
			c0.03,0.12,0.05,0.24,0.08,0.36c0.03,0.17,0.06,0.34,0.08,0.5c0.02,0.12,0.03,0.23,0.04,0.35c0.02,0.18,0.03,0.36,0.03,0.54
			c0,0.1,0.01,0.21,0.01,0.31c0,0.12-0.01,0.24-0.01,0.36c-0.01,0.2-0.01,0.4-0.03,0.6c-0.01,0.13-0.03,0.26-0.05,0.39
			c-0.03,0.19-0.05,0.37-0.09,0.55c-0.03,0.13-0.06,0.26-0.09,0.4c-0.04,0.18-0.09,0.35-0.14,0.53c-0.04,0.13-0.08,0.26-0.13,0.39
			c-0.06,0.17-0.13,0.34-0.2,0.51c-0.05,0.13-0.11,0.25-0.17,0.38c-0.08,0.17-0.17,0.33-0.26,0.5c-0.07,0.12-0.13,0.24-0.2,0.36
			c-0.1,0.17-0.21,0.33-0.33,0.49c-0.07,0.11-0.14,0.21-0.22,0.32c-0.13,0.17-0.28,0.34-0.42,0.51c-0.07,0.08-0.14,0.17-0.22,0.25
			c-0.23,0.24-0.47,0.48-0.73,0.7c-1.76,1.5-3.92,2.23-6.07,2.23c-0.55,0-1.11-0.05-1.65-0.15c-1.48-0.26-2.9-0.88-4.13-1.84
			c-0.49-0.38-0.95-0.82-1.37-1.32l-32.64-38.37c-1.5-1.76-2.23-3.92-2.23-6.07c0-2.66,1.12-5.29,3.3-7.15
			C305.54,232.82,307.7,232.09,309.85,232.09 M309.85,228.09c-3.17,0-6.25,1.13-8.66,3.19c-2.99,2.55-4.71,6.26-4.71,10.2
			c0,3.17,1.13,6.25,3.19,8.66l32.64,38.37c0.59,0.69,1.24,1.32,1.95,1.87c1.71,1.34,3.75,2.25,5.89,2.63
			c0.77,0.14,1.57,0.21,2.35,0.21c3.17,0,6.25-1.13,8.66-3.19c0.36-0.31,0.7-0.63,1.04-0.99c0.1-0.11,0.2-0.22,0.29-0.33
			c0.23-0.26,0.43-0.5,0.62-0.75c0.1-0.13,0.19-0.26,0.28-0.39l0.04-0.06c0.16-0.23,0.32-0.46,0.47-0.7
			c0.09-0.15,0.18-0.3,0.26-0.46l0.03-0.05c0.13-0.23,0.25-0.47,0.37-0.71c0.09-0.18,0.16-0.36,0.24-0.54
			c0.1-0.24,0.2-0.48,0.28-0.73c0.07-0.18,0.13-0.37,0.19-0.56c0.08-0.25,0.14-0.5,0.2-0.75c0.05-0.19,0.09-0.38,0.13-0.57
			c0.05-0.26,0.09-0.52,0.13-0.79l0.01-0.08c0.02-0.16,0.04-0.32,0.06-0.47c0.03-0.28,0.04-0.57,0.05-0.85l0-0.06
			c0.01-0.15,0.01-0.3,0.01-0.45c0-0.13-0.01-0.26-0.01-0.39l0-0.06c-0.01-0.26-0.02-0.52-0.05-0.77c-0.01-0.14-0.03-0.29-0.05-0.43
			l-0.01-0.06c-0.03-0.24-0.07-0.48-0.12-0.72c-0.03-0.17-0.07-0.34-0.11-0.51c-0.05-0.23-0.11-0.46-0.18-0.69
			c-0.05-0.17-0.1-0.34-0.16-0.51c-0.08-0.23-0.16-0.46-0.25-0.68c-0.07-0.17-0.13-0.33-0.2-0.48c-0.1-0.23-0.22-0.46-0.33-0.69
			l-0.03-0.06c-0.06-0.13-0.13-0.25-0.2-0.38c-0.14-0.25-0.29-0.49-0.45-0.73c-0.09-0.14-0.16-0.25-0.23-0.36
			c-0.23-0.33-0.46-0.64-0.71-0.93l-0.01-0.01l-0.08-0.09l-32.63-38.37C317.5,229.81,313.78,228.09,309.85,228.09L309.85,228.09z"/>
	</g>
	<g>
		<path class="st2" d="M282.27,306.84c-0.37-0.01-0.75-0.04-1.12-0.09c-0.73-0.09-1.46-0.26-2.16-0.49c-0.69-0.23-1.36-0.53-2-0.89
			c-0.95-0.54-1.82-1.21-2.58-2c-0.51-0.53-0.97-1.11-1.37-1.72c-0.83-1.28-1.38-2.69-1.65-4.2l-7.52-42.66
			c-0.12-0.65-0.17-1.32-0.17-1.99c0-5.53,3.96-10.24,9.41-11.2c0.38-0.07,0.77-0.12,1.15-0.14c0.28-0.02,0.55-0.03,0.83-0.03
			l0.32,0c0.74,0.02,1.49,0.12,2.22,0.28c0.71,0.16,1.42,0.4,2.09,0.7c0.66,0.3,1.3,0.66,1.9,1.08c0.3,0.21,0.58,0.43,0.86,0.67
			c1.41,1.2,2.51,2.74,3.19,4.46c0.28,0.71,0.49,1.46,0.63,2.22l7.52,42.65c0.06,0.37,0.11,0.73,0.13,1.08
			c0.01,0.11,0.01,0.2,0.01,0.29c0.01,0.3,0.02,0.54,0.02,0.78c0,0.12-0.01,0.23-0.01,0.35c-0.02,0.3-0.03,0.51-0.05,0.72
			c-0.02,0.16-0.04,0.31-0.06,0.46c-0.03,0.2-0.07,0.41-0.11,0.61c-0.03,0.14-0.06,0.28-0.09,0.41c-0.05,0.21-0.11,0.41-0.17,0.61
			c-0.06,0.19-0.09,0.3-0.13,0.41c-0.07,0.21-0.16,0.42-0.24,0.62c-0.06,0.15-0.1,0.25-0.15,0.35c-0.1,0.22-0.22,0.45-0.34,0.67
			l-0.12,0.24c-0.18,0.32-0.37,0.61-0.57,0.9l-0.12,0.16c-0.15,0.21-0.33,0.44-0.51,0.66c-0.06,0.07-0.12,0.14-0.19,0.21
			c-0.21,0.23-0.36,0.4-0.52,0.56c-0.08,0.08-0.16,0.15-0.24,0.23c-0.21,0.19-0.37,0.33-0.53,0.47c-0.11,0.09-0.22,0.18-0.33,0.26
			c-0.16,0.12-0.33,0.25-0.51,0.36c-0.12,0.08-0.24,0.16-0.36,0.24c-0.18,0.11-0.37,0.22-0.55,0.32c-0.16,0.09-0.27,0.15-0.38,0.2
			c-0.2,0.1-0.4,0.19-0.6,0.27c-0.19,0.08-0.29,0.12-0.39,0.16c-0.22,0.08-0.45,0.16-0.68,0.23c-0.16,0.05-0.26,0.08-0.35,0.11
			c-0.35,0.1-0.71,0.18-1.08,0.25c-0.65,0.12-1.32,0.17-1.98,0.17L282.27,306.84z"/>
		<path class="st1" d="M275.08,243.43c0.09,0,0.17,0,0.26,0c0.62,0.02,1.23,0.1,1.83,0.23c0.59,0.14,1.17,0.33,1.72,0.57
			s1.07,0.54,1.57,0.89c0.25,0.17,0.48,0.36,0.71,0.55c1.14,0.97,2.06,2.23,2.63,3.67c0.23,0.58,0.4,1.19,0.52,1.83l7.52,42.65
			c0.05,0.3,0.09,0.6,0.11,0.89c0.01,0.1,0.01,0.19,0.01,0.29c0.01,0.2,0.02,0.4,0.01,0.59c0,0.12-0.01,0.24-0.02,0.36
			c-0.01,0.18-0.02,0.35-0.04,0.53c-0.01,0.12-0.03,0.24-0.05,0.36c-0.03,0.17-0.06,0.34-0.09,0.51c-0.02,0.12-0.05,0.23-0.08,0.35
			c-0.04,0.17-0.09,0.34-0.14,0.5c-0.03,0.11-0.07,0.22-0.1,0.33c-0.06,0.17-0.13,0.34-0.2,0.51c-0.04,0.1-0.08,0.2-0.12,0.29
			c-0.09,0.19-0.18,0.38-0.28,0.56c-0.04,0.07-0.07,0.14-0.11,0.2c-0.14,0.25-0.29,0.49-0.46,0.73c-0.03,0.04-0.06,0.07-0.08,0.11
			c-0.14,0.19-0.28,0.38-0.44,0.57c-0.06,0.08-0.13,0.15-0.2,0.22c-0.13,0.14-0.25,0.28-0.39,0.41c-0.08,0.08-0.16,0.15-0.24,0.23
			c-0.13,0.12-0.26,0.24-0.4,0.35c-0.09,0.07-0.18,0.15-0.28,0.22c-0.14,0.1-0.28,0.2-0.42,0.3c-0.1,0.07-0.2,0.13-0.3,0.2
			c-0.15,0.09-0.3,0.18-0.45,0.26c-0.1,0.06-0.21,0.11-0.32,0.17c-0.16,0.08-0.33,0.15-0.49,0.22c-0.11,0.05-0.21,0.09-0.32,0.13
			c-0.19,0.07-0.38,0.13-0.57,0.19c-0.09,0.03-0.19,0.06-0.28,0.09c-0.29,0.08-0.59,0.15-0.89,0.2c-0.55,0.1-1.1,0.14-1.64,0.14
			c-0.09,0-0.17,0-0.26,0c-0.31-0.01-0.62-0.03-0.93-0.07c-0.61-0.08-1.21-0.22-1.78-0.41c-0.57-0.19-1.13-0.44-1.65-0.73
			c-0.78-0.44-1.5-1-2.13-1.65c-0.42-0.43-0.8-0.91-1.13-1.42c-0.66-1.02-1.14-2.19-1.36-3.47l-7.52-42.65
			c-0.1-0.55-0.14-1.1-0.14-1.64c0-4.47,3.2-8.42,7.75-9.23c0.32-0.06,0.64-0.1,0.95-0.12
			C274.63,243.44,274.86,243.43,275.08,243.43 M275.08,239.43c-0.33,0-0.65,0.01-0.98,0.04c-0.45,0.03-0.91,0.09-1.35,0.17
			c-6.41,1.13-11.06,6.67-11.06,13.16c0,0.78,0.07,1.56,0.2,2.33l7.52,42.66c0.31,1.78,0.97,3.44,1.94,4.95
			c0.47,0.72,1.01,1.4,1.61,2.03c0.89,0.92,1.91,1.71,3.03,2.35c0.75,0.42,1.54,0.78,2.35,1.05c0.82,0.28,1.68,0.47,2.54,0.58
			c0.44,0.06,0.88,0.09,1.32,0.1c0.12,0,0.24,0,0.36,0c0.78,0,1.56-0.07,2.33-0.2c0.42-0.07,0.83-0.17,1.27-0.29
			c0.13-0.04,0.25-0.08,0.37-0.12c0.3-0.1,0.58-0.18,0.84-0.29c0.13-0.05,0.26-0.11,0.39-0.16l0.06-0.03
			c0.24-0.1,0.47-0.21,0.7-0.32c0.15-0.07,0.29-0.15,0.43-0.23c0.24-0.13,0.45-0.25,0.66-0.38c0.15-0.09,0.29-0.18,0.43-0.28
			c0.21-0.14,0.4-0.28,0.6-0.43c0.13-0.1,0.27-0.21,0.4-0.31c0.19-0.16,0.38-0.32,0.56-0.49l0.05-0.04c0.1-0.09,0.2-0.19,0.3-0.28
			c0.19-0.19,0.37-0.39,0.55-0.58c0.12-0.12,0.2-0.22,0.28-0.31c0.19-0.23,0.39-0.48,0.59-0.75c0.05-0.07,0.11-0.14,0.16-0.21
			c0.23-0.33,0.45-0.68,0.65-1.03c0.06-0.1,0.11-0.2,0.16-0.3c0.13-0.25,0.27-0.51,0.39-0.78c0.05-0.12,0.1-0.24,0.15-0.36
			l0.02-0.06c0.1-0.24,0.2-0.48,0.28-0.73c0.05-0.14,0.09-0.28,0.14-0.42l0.02-0.05c0.07-0.23,0.14-0.47,0.2-0.72
			c0.04-0.17,0.08-0.33,0.11-0.5c0.05-0.24,0.09-0.48,0.13-0.73c0.03-0.17,0.05-0.34,0.07-0.51c0.03-0.25,0.05-0.5,0.06-0.75l0-0.06
			c0.01-0.15,0.02-0.3,0.02-0.46c0-0.28,0-0.56-0.02-0.85c-0.01-0.16-0.01-0.29-0.02-0.41c-0.04-0.45-0.09-0.86-0.16-1.27
			l-7.52-42.66c-0.16-0.89-0.4-1.77-0.74-2.6c-0.8-2.02-2.1-3.83-3.75-5.25c-0.32-0.28-0.66-0.54-1.01-0.78
			c-0.7-0.49-1.45-0.92-2.23-1.26c-0.79-0.35-1.61-0.63-2.45-0.82c-0.86-0.2-1.74-0.31-2.61-0.33
			C275.33,239.43,275.21,239.43,275.08,239.43L275.08,239.43z"/>
	</g>
</g>
<path class="st3" d="M278.85,192.81c-8.73,0-18.23,6.15-18.23,18.46c0,12.23,9.5,18.46,18.23,18.46c8.96,0,18.54-6.23,18.54-18.46
	C297.39,198.96,287.81,192.81,278.85,192.81z"/>
</svg>
